<mxfile host="app.diagrams.net" agent="Mozilla/5.0 (Windows NT 10.0; Win64; x64) AppleWebKit/537.36 (KHTML, like Gecko) Chrome/131.0.0.0 Safari/537.36" version="25.0.1">
  <diagram id="C5RBs43oDa-KdzZeNtuy" name="Page-1">
    <mxGraphModel dx="1050" dy="609" grid="1" gridSize="10" guides="1" tooltips="1" connect="1" arrows="1" fold="1" page="1" pageScale="1" pageWidth="827" pageHeight="1169" math="0" shadow="0">
      <root>
        <mxCell id="WIyWlLk6GJQsqaUBKTNV-0" />
        <mxCell id="WIyWlLk6GJQsqaUBKTNV-1" parent="WIyWlLk6GJQsqaUBKTNV-0" />
        <mxCell id="KwFUVVqCDPkDmVCHeCuC-0" value="Selesai" style="strokeWidth=2;html=1;shape=mxgraph.flowchart.terminator;whiteSpace=wrap;" vertex="1" parent="WIyWlLk6GJQsqaUBKTNV-1">
          <mxGeometry x="70" y="380" width="100" height="60" as="geometry" />
        </mxCell>
        <mxCell id="KwFUVVqCDPkDmVCHeCuC-17" style="edgeStyle=orthogonalEdgeStyle;rounded=0;orthogonalLoop=1;jettySize=auto;html=1;entryX=0.5;entryY=0;entryDx=0;entryDy=0;" edge="1" parent="WIyWlLk6GJQsqaUBKTNV-1" source="KwFUVVqCDPkDmVCHeCuC-2" target="KwFUVVqCDPkDmVCHeCuC-4">
          <mxGeometry relative="1" as="geometry" />
        </mxCell>
        <mxCell id="KwFUVVqCDPkDmVCHeCuC-2" value="Mulai" style="strokeWidth=2;html=1;shape=mxgraph.flowchart.terminator;whiteSpace=wrap;" vertex="1" parent="WIyWlLk6GJQsqaUBKTNV-1">
          <mxGeometry x="200" y="50" width="100" height="60" as="geometry" />
        </mxCell>
        <mxCell id="KwFUVVqCDPkDmVCHeCuC-18" style="edgeStyle=orthogonalEdgeStyle;rounded=0;orthogonalLoop=1;jettySize=auto;html=1;entryX=0.5;entryY=0;entryDx=0;entryDy=0;" edge="1" parent="WIyWlLk6GJQsqaUBKTNV-1" source="KwFUVVqCDPkDmVCHeCuC-4" target="KwFUVVqCDPkDmVCHeCuC-6">
          <mxGeometry relative="1" as="geometry" />
        </mxCell>
        <mxCell id="KwFUVVqCDPkDmVCHeCuC-4" value="Deklarasi Variabel&lt;br&gt;dan&lt;br&gt;Type Data" style="shape=hexagon;perimeter=hexagonPerimeter2;whiteSpace=wrap;html=1;fixedSize=1;" vertex="1" parent="WIyWlLk6GJQsqaUBKTNV-1">
          <mxGeometry x="190" y="150" width="120" height="80" as="geometry" />
        </mxCell>
        <mxCell id="KwFUVVqCDPkDmVCHeCuC-23" style="edgeStyle=orthogonalEdgeStyle;rounded=0;orthogonalLoop=1;jettySize=auto;html=1;entryX=0.5;entryY=0;entryDx=0;entryDy=0;" edge="1" parent="WIyWlLk6GJQsqaUBKTNV-1" source="KwFUVVqCDPkDmVCHeCuC-6" target="KwFUVVqCDPkDmVCHeCuC-12">
          <mxGeometry relative="1" as="geometry" />
        </mxCell>
        <mxCell id="KwFUVVqCDPkDmVCHeCuC-6" value="i &amp;lt;= 20" style="rhombus;whiteSpace=wrap;html=1;" vertex="1" parent="WIyWlLk6GJQsqaUBKTNV-1">
          <mxGeometry x="190" y="270" width="120" height="120" as="geometry" />
        </mxCell>
        <mxCell id="KwFUVVqCDPkDmVCHeCuC-24" style="edgeStyle=orthogonalEdgeStyle;rounded=0;orthogonalLoop=1;jettySize=auto;html=1;entryX=0.5;entryY=1;entryDx=0;entryDy=0;" edge="1" parent="WIyWlLk6GJQsqaUBKTNV-1" source="KwFUVVqCDPkDmVCHeCuC-12" target="KwFUVVqCDPkDmVCHeCuC-15">
          <mxGeometry relative="1" as="geometry" />
        </mxCell>
        <mxCell id="KwFUVVqCDPkDmVCHeCuC-12" value="Tampilkan&lt;br&gt;Variable i" style="shape=parallelogram;perimeter=parallelogramPerimeter;whiteSpace=wrap;html=1;fixedSize=1;" vertex="1" parent="WIyWlLk6GJQsqaUBKTNV-1">
          <mxGeometry x="190" y="450" width="120" height="60" as="geometry" />
        </mxCell>
        <mxCell id="KwFUVVqCDPkDmVCHeCuC-25" style="edgeStyle=orthogonalEdgeStyle;rounded=0;orthogonalLoop=1;jettySize=auto;html=1;entryX=1;entryY=0.5;entryDx=0;entryDy=0;" edge="1" parent="WIyWlLk6GJQsqaUBKTNV-1" source="KwFUVVqCDPkDmVCHeCuC-15" target="KwFUVVqCDPkDmVCHeCuC-6">
          <mxGeometry relative="1" as="geometry">
            <Array as="points">
              <mxPoint x="400" y="330" />
            </Array>
          </mxGeometry>
        </mxCell>
        <mxCell id="KwFUVVqCDPkDmVCHeCuC-15" value="i ditambah 2" style="rounded=0;whiteSpace=wrap;html=1;" vertex="1" parent="WIyWlLk6GJQsqaUBKTNV-1">
          <mxGeometry x="340" y="370" width="120" height="60" as="geometry" />
        </mxCell>
        <mxCell id="KwFUVVqCDPkDmVCHeCuC-21" value="False" style="text;html=1;align=center;verticalAlign=middle;whiteSpace=wrap;rounded=0;" vertex="1" parent="WIyWlLk6GJQsqaUBKTNV-1">
          <mxGeometry x="130" y="300" width="60" height="30" as="geometry" />
        </mxCell>
        <mxCell id="KwFUVVqCDPkDmVCHeCuC-26" style="edgeStyle=orthogonalEdgeStyle;rounded=0;orthogonalLoop=1;jettySize=auto;html=1;entryX=0.5;entryY=0;entryDx=0;entryDy=0;entryPerimeter=0;" edge="1" parent="WIyWlLk6GJQsqaUBKTNV-1" source="KwFUVVqCDPkDmVCHeCuC-6" target="KwFUVVqCDPkDmVCHeCuC-0">
          <mxGeometry relative="1" as="geometry" />
        </mxCell>
        <mxCell id="KwFUVVqCDPkDmVCHeCuC-27" value="True" style="text;html=1;align=center;verticalAlign=middle;whiteSpace=wrap;rounded=0;" vertex="1" parent="WIyWlLk6GJQsqaUBKTNV-1">
          <mxGeometry x="240" y="395" width="60" height="30" as="geometry" />
        </mxCell>
      </root>
    </mxGraphModel>
  </diagram>
</mxfile>
